<?xml version="1.0" encoding="utf-8"?>
<!-- Generator: Adobe Illustrator 20.0.0, SVG Export Plug-In . SVG Version: 6.00 Build 0)  -->
<svg version="1.1"
	 id="Layer_1" xmlns:cc="http://creativecommons.org/ns#" xmlns:dc="http://purl.org/dc/elements/1.1/" xmlns:inkscape="http://www.inkscape.org/namespaces/inkscape" xmlns:rdf="http://www.w3.org/1999/02/22-rdf-syntax-ns#" xmlns:sodipodi="http://sodipodi.sourceforge.net/DTD/sodipodi-0.dtd" xmlns:svg="http://www.w3.org/2000/svg"
	 xmlns="http://www.w3.org/2000/svg" xmlns:xlink="http://www.w3.org/1999/xlink" x="0px" y="0px" viewBox="0 0 138.7 138.7"
	 style="enable-background:new 0 0 138.7 138.7;" xml:space="preserve">
<style type="text/css">
	.st0{fill:#A5A5A5;}
	.st1{fill:none;stroke:#A5A5A5;stroke-width:3;stroke-miterlimit:10;}
</style>
<path class="st0" d="M55.5,42h26.6l3.2,8h-33L55.5,42z M27.8,54H87h22.8v52h-82C27.8,106,27.8,54,27.8,54z M68.8,59
	c-11.6,0-21,9.4-21,21s9.4,21,21,21s21-9.4,21-21S80.4,59,68.8,59z M68.8,62.2c9.8,0,17.8,7.9,17.8,17.8c0,9.8-7.9,17.8-17.8,17.8
	s-17.7-8-17.7-17.8S59,62.2,68.8,62.2z"/>
<line class="st1" x1="98.9" y1="31.8" x2="98.9" y2="50"/>
<line class="st1" x1="108" y1="40.9" x2="89.8" y2="40.9"/>
<circle class="st1" cx="69.3" cy="72.3" r="61.3"/>
</svg>
